HIERARCHY
ROOT Hips
{
	OFFSET 0.000000 0.000000 0.000000
	CHANNELS 6 Xposition Yposition Zposition Yrotation Xrotation Zrotation 
	JOINT LeftHip
	{
		OFFSET 0.094196 0.000343 -0.000038
		CHANNELS 3 Yrotation Xrotation Zrotation
		JOINT LeftKnee
		{
			OFFSET 0.000000 -0.468901 0.000041
			CHANNELS 3 Yrotation Xrotation Zrotation
			JOINT LeftAnkle
			{
				OFFSET 0.000000 -0.397674 0.000438
				CHANNELS 3 Yrotation Xrotation Zrotation
				JOINT LeftToe
				{
					OFFSET 0.000000 -0.090712 0.195501
					CHANNELS 3 Yrotation Xrotation Zrotation
					End Site
					{
						OFFSET 0.000000 0.000000 0.000000
					}
				}
			}
		}
	}
	JOINT RightHip
	{
		OFFSET -0.094196 0.000364 -0.000040
		CHANNELS 3 Yrotation Xrotation Zrotation
		JOINT RightKnee
		{
			OFFSET 0.000000 -0.468901 0.000041
			CHANNELS 3 Yrotation Xrotation Zrotation
			JOINT RightAnkle
			{
				OFFSET 0.000000 -0.397674 0.000438
				CHANNELS 3 Yrotation Xrotation Zrotation
				JOINT RightToe
				{
					OFFSET 0.000000 -0.090712 0.195501
					CHANNELS 3 Yrotation Xrotation Zrotation
					End Site
					{
						OFFSET 0.000000 0.000000 0.000000
					}
				}
			}
		}
	}
	JOINT Chest
	{
		OFFSET 0.000000 0.113860 -0.012651
		CHANNELS 3 Yrotation Xrotation Zrotation
		JOINT Chest3
		{
			OFFSET -0.002400 0.210882 -0.005802
			CHANNELS 3 Yrotation Xrotation Zrotation
			JOINT Chest4
			{
				OFFSET 0.000000 0.100637 -0.000145
				CHANNELS 3 Yrotation Xrotation Zrotation
				JOINT Neck
				{
					OFFSET 0.000000 0.138831 0.000000
					CHANNELS 3 Yrotation Xrotation Zrotation
					JOINT Head
					{
						OFFSET 0.000000 0.095420 0.000176
						CHANNELS 3 Yrotation Xrotation Zrotation
						End Site
						{
							OFFSET 0.000000 0.000000 0.000000
						}
					}
				}
				JOINT LeftCollar
				{
					OFFSET 0.029338 0.077908 0.000000
					CHANNELS 3 Yrotation Xrotation Zrotation
					JOINT LeftShoulder
					{
						OFFSET 0.140442 0.000000 0.000000
						CHANNELS 3 Yrotation Xrotation Zrotation
						JOINT LeftElbow
						{
							OFFSET 0.303173 0.000000 0.000000
							CHANNELS 3 Yrotation Xrotation Zrotation
							JOINT LeftWrist
							{
								OFFSET 0.261212 0.000000 0.000049
								CHANNELS 3 Yrotation Xrotation Zrotation
								End Site
								{
									OFFSET 0.000000 0.000000 0.000000
								}
							}
						}
					}
				}
				JOINT RightCollar
				{
					OFFSET -0.029338 0.077908 0.000000
					CHANNELS 3 Yrotation Xrotation Zrotation
					JOINT RightShoulder
					{
						OFFSET -0.140442 0.000000 0.000000
						CHANNELS 3 Yrotation Xrotation Zrotation
						JOINT RightElbow
						{
							OFFSET -0.303173 0.000000 0.000000
							CHANNELS 3 Yrotation Xrotation Zrotation
							JOINT RightWrist
							{
								OFFSET -0.261212 0.000000 0.000049
								CHANNELS 3 Yrotation Xrotation Zrotation
								End Site
								{
									OFFSET 0.000000 0.000000 0.000000
								}
							}
						}
					}
				}
			}
		}
	}
}
MOTION
Frames: 17
Frame Time: 0.016667
0.000000 0.000000 0.000000 174.218985 357.126677 349.788704 7.317754 340.189733 25.485443 358.861009 41.836188 0.545885 13.014310 342.442107 344.680281 359.278201 0.102419 358.419797 354.452268 342.547747 352.405366 2.299126 22.298446 1.968315 1.847865 2.904033 15.392701 358.786298 355.247955 355.711655 359.890514 15.749823 0.119444 359.975298 8.356156 0.131235 0.701570 11.137848 0.571583 4.331109 5.552254 3.101196 4.317369 332.436555 6.113281 355.777195 1.328536 6.669464 250.475894 320.448473 24.283840 330.900151 314.219448 23.151134 14.965124 354.379154 24.837765 7.409592 4.128158 359.732119 94.799925 313.583399 2.504072 44.401784 329.648005 339.013599 347.542684 355.400778 333.437859 
0.000000 0.000000 0.000000 174.155313 356.842024 349.406798 6.975393 339.887016 25.452703 358.917101 43.227572 0.551313 13.252854 341.517007 344.892651 359.061677 359.982950 358.003911 354.564426 342.962251 352.388958 2.325936 21.633339 1.808342 1.836942 3.532399 15.268324 358.794487 355.089632 356.167930 359.889046 15.902297 0.027601 359.990523 8.496504 0.049329 0.832694 11.165007 0.543462 4.355090 5.533023 3.212705 4.601232 332.231874 6.340346 355.832192 1.340969 6.670176 250.660413 320.823619 24.459316 331.226914 314.421748 23.000064 15.279426 354.450753 25.370393 7.280106 4.154589 359.644750 95.464373 313.734209 1.769557 44.674165 329.157284 338.879232 347.265663 355.224574 333.060454 
0.000000 0.000000 0.000000 174.037359 356.600103 349.052656 6.704604 339.575416 25.392439 358.999611 44.519969 0.593909 13.508010 340.701931 345.088838 358.897925 359.975851 357.579647 354.761645 343.328602 352.385761 2.339309 20.972144 1.637591 1.801230 4.146039 15.021917 358.838948 355.020991 356.677472 359.888930 15.990440 359.927483 0.004661 8.578723 359.959782 0.986539 11.171616 0.511367 4.389459 5.579145 3.327890 4.975770 332.232988 6.399177 355.881140 1.307257 6.665172 250.881925 320.969893 24.471877 331.430403 314.504949 22.949077 15.498013 354.610726 26.006599 7.152065 4.135861 359.598993 95.818599 313.785784 1.347586 44.843324 328.936595 338.951472 346.769075 354.905192 332.960849 
0.000000 0.000000 0.000000 173.875699 356.373271 348.727788 6.488152 339.317517 25.304890 359.108293 45.671509 0.657059 13.786189 339.992981 345.293408 358.803970 0.023291 357.127684 355.006308 343.668607 352.390449 2.343955 20.327501 1.460178 1.744634 4.754965 14.697357 358.933916 354.986908 357.195559 359.889833 16.048356 359.829349 0.017193 8.633558 359.871936 1.146506 11.169149 0.477013 4.439529 5.660183 3.431056 5.294288 332.387217 6.448536 355.907386 1.248845 6.645020 251.153976 320.978037 24.396196 331.563952 314.523171 22.947248 15.549711 354.550649 26.568968 7.022246 4.107078 359.574503 95.995467 313.800724 1.103972 45.016414 328.827575 339.127121 346.297829 354.807695 333.074305 
0.000000 0.000000 0.000000 173.750179 356.145987 348.403793 6.275003 339.136021 25.224164 359.227592 46.643854 0.739427 14.038458 339.368138 345.504828 358.853998 0.123488 356.651987 355.135688 344.005879 352.438201 2.331984 19.706603 1.295141 1.653390 5.403788 14.437514 359.206178 354.920918 357.517791 359.889369 16.125612 359.746417 0.028462 8.705850 359.797641 1.282348 11.175745 0.445940 4.497420 5.721390 3.534156 5.567208 332.610999 6.491156 355.901932 1.198944 6.612677 251.430257 320.977753 24.330558 331.571259 314.529257 22.980589 15.476415 354.253167 27.036660 6.917920 4.055767 359.554225 96.092629 313.777488 0.938035 45.362237 328.610074 339.231967 346.026692 355.124351 333.257268 
0.000000 0.000000 0.000000 173.703648 355.899729 348.058150 6.036572 339.059214 25.179391 359.337631 47.402841 0.821357 14.253083 338.827429 345.738690 359.026464 0.250753 356.155045 355.072177 344.383333 352.552785 2.312064 19.076622 1.152963 1.508493 6.136988 14.289255 359.630104 354.771554 357.593089 359.885966 16.257525 359.690260 0.038299 8.827452 359.747427 1.371275 11.203145 0.421885 4.570467 5.733318 3.637485 5.773720 332.817180 6.556762 355.829886 1.159399 6.565472 251.715044 320.996119 24.300712 331.418691 314.603686 23.060221 15.303163 353.962639 27.448796 6.848032 3.970435 359.524656 96.158629 313.691546 0.834947 46.029873 328.130035 339.135159 346.056547 355.677757 333.291454 
0.000000 0.000000 0.000000 173.693844 355.653871 347.712793 5.795916 339.047106 25.149252 359.445663 48.005583 0.901811 14.444984 338.362156 345.987712 359.200836 0.359177 355.699718 354.896563 344.761395 352.704299 2.284714 18.462213 1.030682 1.318948 6.921772 14.187471 0.009364 354.581679 357.572098 359.881209 16.409276 359.648239 0.046826 8.966733 359.709828 1.422566 11.238765 0.401510 4.654002 5.725909 3.741228 5.871549 333.000062 6.738201 355.735463 1.130342 6.501108 252.016648 321.003164 24.273906 331.141863 314.707505 23.160299 15.132895 353.866265 27.760616 6.794947 3.855567 359.496031 96.146548 313.551935 0.830564 46.866088 327.536081 338.983284 346.396478 355.922913 333.055534 
0.000000 0.000000 0.000000 173.672943 355.449868 347.406190 5.579585 339.013772 25.096665 359.561348 48.557271 0.976885 14.625808 337.938441 346.230347 359.284331 0.427888 355.376625 354.687573 345.058943 352.849819 2.240385 17.915018 0.918613 1.096195 7.719678 14.090018 0.214485 354.412160 357.587501 359.877312 16.525163 359.596496 0.055004 9.073354 359.663216 1.464588 11.268129 0.382325 4.721730 5.732759 3.861440 5.849418 333.189687 7.106782 355.713809 1.147489 6.425377 252.305904 321.074600 24.281274 330.829069 314.692734 23.165754 15.063161 353.918860 27.915158 6.757726 3.750674 359.484858 96.075319 313.443680 0.851280 47.547695 327.057918 338.888347 346.937571 355.626147 332.670186 
0.000000 0.000000 0.000000 173.623096 355.322106 347.164994 5.401962 338.909305 24.992589 359.694274 49.088911 1.043722 14.789444 337.552930 346.462056 359.263920 0.453549 355.236784 354.476264 345.223051 352.966611 2.166641 17.455314 0.803840 0.837096 8.538255 13.980544 0.244360 354.287166 357.695232 359.875216 16.578746 359.531486 0.062624 9.123600 359.604306 1.511010 11.277129 0.360467 4.758836 5.769186 3.991033 5.733106 333.397606 7.652782 355.824289 1.214689 6.348265 252.521675 321.160127 24.324072 330.496069 314.511724 23.043651 15.167071 354.000551 27.756694 6.739510 3.681471 359.497091 95.971963 313.410849 0.841759 47.928920 326.775428 338.905522 347.456334 355.141086 332.315174 
0.000000 0.000000 0.000000 173.560091 355.235601 346.962593 5.249678 338.785095 24.866853 359.837474 49.565490 1.107235 14.939594 337.209265 346.688233 359.197590 0.438809 355.207343 354.230237 345.296992 353.073476 2.077326 17.084884 0.709520 0.542295 9.357294 13.866116 0.173477 354.189521 357.834356 359.874180 16.598483 359.458957 0.070217 9.143244 359.538695 1.566059 11.274661 0.339233 4.771440 5.819531 4.129535 5.577230 333.569822 8.268363 355.997158 1.289339 6.269670 252.698138 321.225982 24.357043 330.135431 314.275205 22.822531 15.407045 353.932640 27.239983 6.730799 3.640896 359.529699 95.824908 313.406179 0.838043 48.170101 326.659937 338.989134 347.770450 354.963766 332.099016 
0.000000 0.000000 0.000000 173.485522 355.126899 346.757147 5.107534 338.707593 24.770746 359.977430 49.994160 1.175727 15.103772 336.882548 346.900302 359.126429 0.378850 355.176652 353.940076 345.362650 353.204029 1.983588 16.792856 0.644085 0.236043 10.114284 13.760799 0.035938 354.102844 357.939518 359.873999 16.613195 359.372173 0.079584 9.158325 359.460888 1.641470 11.267977 0.318752 4.757961 5.872064 4.291144 5.429729 333.659452 8.871729 356.074842 1.333782 6.210547 252.884090 321.317069 24.372394 329.797236 314.084558 22.623449 15.632067 353.732070 26.621969 6.724211 3.638708 359.592368 95.617826 313.390215 0.882543 48.390077 326.771020 339.056740 347.896158 355.130211 332.029284 
0.000000 0.000000 0.000000 173.391559 354.969298 346.541982 4.979234 338.726271 24.714516 0.115814 50.345616 1.252297 15.299795 336.568626 347.101678 359.059709 0.283746 355.094780 353.589281 345.542971 353.372467 1.886601 16.377214 0.590491 359.931730 10.899341 13.689317 359.887795 354.010856 357.974373 359.875213 16.619798 359.260727 0.091796 9.166015 359.361699 1.742616 11.254583 0.296874 4.711191 5.931628 4.486380 5.313009 333.684830 9.437114 356.020906 1.267210 6.151896 253.189665 321.362873 24.178397 329.390235 314.090695 22.511792 15.703238 353.550076 26.338439 6.713445 3.698921 359.717200 95.316009 313.351871 1.023240 48.591623 327.236262 339.086964 347.976708 355.344832 331.960940 
0.000000 0.000000 0.000000 173.286893 354.789449 346.323617 4.861699 338.793780 24.687447 0.248663 50.646327 1.331594 15.510619 336.273180 347.288372 358.999457 0.175115 354.990248 353.194178 345.746135 353.570683 1.771620 15.983517 0.539458 359.626815 11.645301 13.639556 359.781134 353.926004 357.950065 359.877183 16.620689 359.135573 0.105529 9.168482 359.250598 1.869049 11.237199 0.274902 4.638388 5.993765 4.706242 5.222123 333.680136 9.938449 355.895434 1.158297 6.103106 253.510289 321.407139 23.896909 328.951036 314.199550 22.470479 15.458066 353.585872 26.682754 6.690923 3.796089 359.878198 94.931286 313.299088 1.223774 48.807479 327.917132 339.118451 348.147097 355.489627 331.649153 
0.000000 0.000000 0.000000 173.198450 354.603769 346.079696 4.729757 338.832761 24.708988 0.353409 50.984649 1.407950 15.712312 335.988091 347.441565 358.958198 0.063958 354.874746 352.779346 345.921473 353.798596 1.647867 15.704742 0.505072 359.296024 12.276334 13.562312 359.711426 353.873446 357.903145 359.877726 16.652499 359.021788 0.118695 9.198825 359.149788 2.014875 11.231393 0.255719 4.561519 6.032057 4.936539 5.134923 333.629017 10.342052 355.775937 1.061276 6.088593 253.655887 321.505492 23.742574 328.540478 314.251120 22.490296 14.968730 353.840205 27.456111 6.654892 3.870070 0.015702 94.563320 313.226247 1.400778 49.177383 328.521155 339.083050 348.446557 355.680708 331.044624 
0.000000 0.000000 0.000000 173.127000 354.419927 345.791521 4.571363 338.804250 24.798271 0.420328 51.398461 1.480957 15.896944 335.713994 347.550893 358.926028 359.961138 354.748354 352.326287 346.080380 354.075364 1.577948 15.483027 0.517030 358.841862 12.823687 13.412934 359.695008 353.864034 357.841352 359.875667 16.734326 358.923255 0.130747 9.274491 359.062657 2.173564 11.242485 0.235589 4.490529 6.028666 5.185459 5.037039 333.531490 10.693448 355.695899 0.974352 6.135184 253.536580 321.696751 23.814805 328.233598 314.116563 22.545108 14.467588 354.140540 28.170553 6.590920 3.892009 0.112096 94.242507 313.129012 1.523795 49.798470 328.860585 338.976798 348.859313 355.917028 330.334345 
0.000000 0.000000 0.000000 173.070846 354.229694 345.476924 4.399947 338.748424 24.934375 0.462295 51.845451 1.554018 16.071037 335.454244 347.628410 358.887618 359.864519 354.607798 351.865461 346.208374 354.389553 1.514091 15.375856 0.551749 358.337211 13.269468 13.228238 359.671039 353.854307 357.767999 359.871895 16.847693 358.833846 0.141874 9.378611 358.983710 2.296537 11.264369 0.212945 4.429967 6.001920 5.445269 4.948520 333.424478 11.062888 355.665990 0.876825 6.209271 253.300429 321.920122 23.983978 327.954095 313.931550 22.585586 14.183859 354.234632 28.472376 6.522452 3.883804 0.193009 93.966033 313.030455 1.607383 50.524359 329.069791 338.861879 349.362849 356.000610 329.787248 
0.000000 0.000000 0.000000 173.046133 354.023982 345.168202 4.228171 338.710254 25.079026 0.487107 52.290387 1.621367 16.233383 335.203187 347.690615 358.852673 359.763092 354.469873 351.468878 346.369790 354.688088 1.457843 15.284831 0.576832 357.893631 13.649858 13.028344 359.498801 353.813303 357.784924 359.867032 16.971581 358.766497 0.150667 9.492001 358.924550 2.370561 11.292503 0.192708 4.378683 5.979467 5.680221 4.860472 333.332270 11.490146 355.632096 0.779565 6.249730 253.160116 322.090146 24.081789 327.537870 313.830534 22.614191 14.096391 354.132465 28.369234 6.499744 3.837137 0.272873 93.673345 312.959556 1.696043 51.127806 329.354150 338.809572 349.926077 355.882433 329.441158 
